<?xml version="1.0" encoding="UTF-8"?>
<!--
  Romarr app icon — a ROM cartridge (chamfered top-right corner, the
  signature Game Boy shape) bearing a pixel "R", on a dark squircle
  badge. Game Boy LCD-green palette (#9BBC0F), consistent with the
  *arr app-icon family. 512x512, edge-to-edge so it doubles as the
  maskable PWA icon.
-->
<svg xmlns="http://www.w3.org/2000/svg" width="512" height="512" viewBox="0 0 512 512">
  <defs>
    <linearGradient id="badge" x1="0" y1="0" x2="0" y2="1">
      <stop offset="0" stop-color="#141d10"/>
      <stop offset="1" stop-color="#0a0c08"/>
    </linearGradient>
    <radialGradient id="glow" cx="0.5" cy="0.36" r="0.62">
      <stop offset="0" stop-color="#9BBC0F" stop-opacity="0.28"/>
      <stop offset="1" stop-color="#9BBC0F" stop-opacity="0"/>
    </radialGradient>
    <linearGradient id="cart" x1="0" y1="0" x2="0" y2="1">
      <stop offset="0" stop-color="#B6CE3F"/>
      <stop offset="0.55" stop-color="#9BBC0F"/>
      <stop offset="1" stop-color="#7E9B0C"/>
    </linearGradient>
  </defs>

  <!-- Badge -->
  <rect width="512" height="512" rx="114" fill="url(#badge)"/>
  <rect width="512" height="512" rx="114" fill="url(#glow)"/>

  <!-- Cartridge body — chamfered top-right corner -->
  <path d="M 170 92 L 302 92 L 364 154 L 364 398 Q 364 420 342 420
           L 170 420 Q 148 420 148 398 L 148 114 Q 148 92 170 92 Z"
        fill="url(#cart)" stroke="#D7E78A" stroke-width="3" stroke-opacity="0.55"/>

  <!-- Inner shadow line tracing the chamfer -->
  <path d="M 302 92 L 364 154" fill="none"
        stroke="#5F7409" stroke-width="6" stroke-linecap="round"/>

  <!-- Label -->
  <rect x="176" y="128" width="160" height="172" rx="14" fill="#EEF3D2"/>
  <rect x="176" y="128" width="160" height="172" rx="14"
        fill="none" stroke="#5F7409" stroke-width="3" stroke-opacity="0.4"/>

  <!-- Pixel "R" (5x7 grid, 20px cells, drawn on the label) -->
  <g fill="#3E4D06">
    <rect x="206" y="144" width="18" height="18" rx="3"/>
    <rect x="226" y="144" width="18" height="18" rx="3"/>
    <rect x="246" y="144" width="18" height="18" rx="3"/>
    <rect x="266" y="144" width="18" height="18" rx="3"/>
    <rect x="206" y="164" width="18" height="18" rx="3"/>
    <rect x="286" y="164" width="18" height="18" rx="3"/>
    <rect x="206" y="184" width="18" height="18" rx="3"/>
    <rect x="286" y="184" width="18" height="18" rx="3"/>
    <rect x="206" y="204" width="18" height="18" rx="3"/>
    <rect x="226" y="204" width="18" height="18" rx="3"/>
    <rect x="246" y="204" width="18" height="18" rx="3"/>
    <rect x="266" y="204" width="18" height="18" rx="3"/>
    <rect x="206" y="224" width="18" height="18" rx="3"/>
    <rect x="246" y="224" width="18" height="18" rx="3"/>
    <rect x="206" y="244" width="18" height="18" rx="3"/>
    <rect x="266" y="244" width="18" height="18" rx="3"/>
    <rect x="206" y="264" width="18" height="18" rx="3"/>
    <rect x="286" y="264" width="18" height="18" rx="3"/>
  </g>

  <!-- Connector grip ridges -->
  <g fill="#5F7409">
    <rect x="185" y="324" width="22" height="76" rx="8"/>
    <rect x="225" y="324" width="22" height="76" rx="8"/>
    <rect x="265" y="324" width="22" height="76" rx="8"/>
    <rect x="305" y="324" width="22" height="76" rx="8"/>
  </g>
</svg>
